<svg width="443" height="196" viewBox="0 0 443 196" fill="none" xmlns="http://www.w3.org/2000/svg">
<g filter="url(#filter0_d_218_220)">
<path d="M26.0544 95.4944C22.5523 95.4944 19.5483 95.0718 17.0425 94.2264C14.5366 93.4113 12.4534 92.1131 10.7929 90.3318C9.10226 88.5204 7.83424 86.1655 6.9889 83.2671C6.17374 80.3386 5.76617 76.8063 5.76617 72.6702C5.76617 67.9906 6.3096 63.1147 7.39647 58.0427C8.66449 52.1555 10.4759 46.8872 12.8308 42.2378C15.5782 36.8336 18.9143 32.622 22.8391 29.6029C27.3073 26.1611 32.4096 24.4402 38.1459 24.4402C42.7651 24.4402 46.4333 25.4064 49.1504 27.3386C52.1393 29.4519 53.6338 32.622 53.6338 36.8487C53.6338 39.5055 53.1507 41.5434 52.1846 42.9623C51.0374 44.5926 49.3467 45.4078 47.1126 45.4078C46.1766 45.4078 45.2558 45.2418 44.3501 44.9097C43.4746 44.5776 42.6443 43.9435 41.8593 43.0076C42.4028 42.7359 42.9311 42.3132 43.4444 41.7396C43.9576 41.1358 44.4105 40.4414 44.803 39.6564C45.6785 37.9054 46.1163 36.1694 46.1163 34.4485C46.1163 32.788 45.6936 31.4747 44.8482 30.5086C43.8519 29.3614 42.3877 28.7877 40.4555 28.7877C38.795 28.7877 37.1496 29.4066 35.5193 30.6445C33.9191 31.8521 32.3794 33.573 30.9001 35.8071C29.4811 37.9507 28.1678 40.4565 26.9602 43.3246C25.7525 46.1928 24.726 49.242 23.8807 52.4725C23.0353 55.7331 22.3711 59.0541 21.8881 62.4355C21.405 65.8168 21.1635 69.0472 21.1635 72.1267C21.1635 74.4212 21.3296 76.4289 21.6617 78.1498C22.0239 79.8707 22.5976 81.3349 23.3825 82.5426C25.1034 85.2296 28.0772 86.573 32.3039 86.573C35.9268 86.573 39.2931 85.773 42.4028 84.1729C45.5124 82.5426 48.1692 80.2481 50.3732 77.2894L52.5016 78.2404C51.3242 81.1991 49.6939 83.7955 47.6107 86.0296C45.5577 88.2335 43.233 90.0601 40.6366 91.5093C38.2515 92.8377 35.791 93.834 33.2549 94.4981C30.7189 95.1623 28.3187 95.4944 26.0544 95.4944ZM83.568 94.5434C79.7338 94.5434 76.8958 93.4566 75.0542 91.2828C73.4541 89.411 72.654 87.0108 72.654 84.0823C72.654 82.6935 72.8201 81.0783 73.1522 79.2367C73.5145 77.395 74.0428 75.025 74.7372 72.1267C75.4316 69.168 75.9448 66.8131 76.2769 65.0621C76.6392 63.2808 76.8204 61.7411 76.8204 60.4429C76.8204 57.2728 75.7033 55.6878 73.4692 55.6878C71.8993 55.6878 70.4501 56.518 69.1217 58.1785C68.0046 59.5975 67.0385 61.6203 66.2234 64.2469L59.9286 94H46.5691L60.0192 30.9162L73.7409 29.0594L68.7594 52.4272C70.5709 50.4044 72.5182 48.9854 74.6013 48.1703C76.1411 47.5664 77.8016 47.2645 79.5828 47.2645C82.7227 47.2645 85.1983 48.0797 87.0098 49.71C88.942 51.4913 89.9081 54.1632 89.9081 57.7257C89.9081 59.8692 89.5156 62.6619 88.7307 66.1036C88.5193 67.0999 88.1721 68.5944 87.6891 70.587C86.8135 73.9382 86.1795 76.6101 85.7871 78.6027C85.5455 79.8707 85.4248 80.8972 85.4248 81.6821C85.4248 82.92 85.6965 83.8861 86.2399 84.5805C86.8135 85.2446 87.7797 85.5767 89.1382 85.5767C90.9799 85.5767 92.5347 84.822 93.8027 83.3124C94.7688 82.1652 95.8104 80.1877 96.9275 77.3799H100.822C98.5276 84.1729 95.6293 88.9279 92.1271 91.6451C89.6515 93.5773 86.7984 94.5434 83.568 94.5434ZM106.121 94.5434C103.162 94.5434 100.822 93.6679 99.1012 91.9168C97.169 89.9846 96.2029 87.1618 96.2029 83.4483C96.2029 81.6972 96.4444 79.6744 96.9275 77.3799L103.222 47.6268H116.582L109.925 79.1461C109.744 80.082 109.653 80.9575 109.653 81.7727C109.653 84.3087 110.574 85.5767 112.415 85.5767C114.106 85.5767 115.631 84.8069 116.989 83.2671C118.076 81.9689 119.027 80.0065 119.842 77.3799L126.137 47.6268H139.497L132.84 79.1461C132.568 80.0518 132.432 81.0481 132.432 82.135C132.432 83.403 132.734 84.2936 133.338 84.8069C133.941 85.3201 134.908 85.5767 136.236 85.5767C137.957 85.5767 139.497 84.8069 140.855 83.2671C142.063 81.9086 143.029 79.9462 143.754 77.3799H147.648C145.988 82.0897 143.98 85.8183 141.625 88.5656C139.632 90.83 137.383 92.4603 134.877 93.4566C133.036 94.1811 131.088 94.5434 129.035 94.5434C126.379 94.5434 124.265 93.8038 122.695 92.3244C121.125 90.8451 120.174 88.6562 119.842 85.7579C117.729 89.1393 115.344 91.5545 112.687 93.0037C110.785 94.0302 108.596 94.5434 106.121 94.5434ZM150.048 47.6268H163.408L162.23 53.3782C164.344 51.5064 166.065 50.178 167.393 49.393C169.446 48.2156 171.454 47.6268 173.416 47.6268C175.409 47.6268 177.009 48.3363 178.216 49.7553C178.76 50.3893 179.167 51.129 179.439 51.9743C179.711 52.7895 179.847 53.665 179.847 54.6009C179.847 55.4463 179.711 56.2614 179.439 57.0464C179.167 57.8313 178.76 58.5408 178.216 59.1748C177.613 59.839 176.873 60.3674 175.997 60.7599C175.152 61.1523 174.201 61.3486 173.144 61.3486C172.329 61.3486 171.68 61.2127 171.197 60.941C170.714 60.6693 170.337 60.2768 170.065 59.7636C169.823 59.2503 169.657 58.7522 169.567 58.2691C169.295 56.9709 169.023 56.1105 168.752 55.6878C168.54 55.3859 168.208 55.2349 167.755 55.2349C166.457 55.2349 165.355 55.5066 164.449 56.0501C163.544 56.5935 162.396 57.4992 161.008 58.7673L153.581 94H140.221L150.048 47.6268ZM184.919 47.6268H198.278L197.101 53.3782C199.214 51.5064 200.935 50.178 202.263 49.393C204.316 48.2156 206.324 47.6268 208.286 47.6268C210.279 47.6268 211.879 48.3363 213.087 49.7553C213.63 50.3893 214.038 51.129 214.31 51.9743C214.581 52.7895 214.717 53.665 214.717 54.6009C214.717 55.4463 214.581 56.2614 214.31 57.0464C214.038 57.8313 213.63 58.5408 213.087 59.1748C212.483 59.839 211.743 60.3674 210.868 60.7599C210.022 61.1523 209.071 61.3486 208.015 61.3486C207.2 61.3486 206.551 61.2127 206.067 60.941C205.584 60.6693 205.207 60.2768 204.935 59.7636C204.694 59.2503 204.528 58.7522 204.437 58.2691C204.165 56.9709 203.894 56.1105 203.622 55.6878C203.411 55.3859 203.079 55.2349 202.626 55.2349C201.327 55.2349 200.226 55.5066 199.32 56.0501C198.414 56.5935 197.267 57.4992 195.878 58.7673L188.451 94H175.092L184.919 47.6268ZM224.635 94.5434C221.103 94.5434 218.249 93.4415 216.076 91.2375C213.54 88.6411 212.272 84.7767 212.272 79.6442C212.272 77.4705 212.498 75.176 212.951 72.7607C213.374 70.3455 214.008 67.9604 214.853 65.6055C216.785 60.2919 219.427 56.0048 222.778 52.7442C226.643 49.0307 231.096 47.174 236.138 47.174C238.643 47.174 240.515 47.6117 241.753 48.4873C243.021 49.3326 243.655 50.4648 243.655 51.8837V52.563L244.651 47.6268H258.011L251.354 79.1461C251.082 80.0518 250.946 81.0481 250.946 82.135C250.946 84.7918 252.214 86.1202 254.75 86.1202C256.441 86.1202 257.981 85.2597 259.369 83.5389C260.547 82.0897 261.513 80.0367 262.268 77.3799H266.162C264.502 82.0897 262.494 85.8183 260.139 88.5656C258.147 90.83 255.897 92.4603 253.392 93.4566C251.55 94.1811 249.603 94.5434 247.55 94.5434C244.923 94.5434 242.825 93.834 241.255 92.415C239.715 90.9658 238.779 88.8374 238.447 86.0296C236.696 88.5053 234.854 90.4375 232.922 91.8263C230.447 93.6377 227.684 94.5434 224.635 94.5434ZM230.658 85.5767C231.352 85.5767 232.077 85.3956 232.832 85.0333C233.617 84.671 234.371 84.1578 235.096 83.4936C236.726 81.9237 237.813 79.8858 238.357 77.3799L242.795 56.4577C242.795 56.1558 242.719 55.8086 242.568 55.4161C242.447 54.9934 242.266 54.6009 242.025 54.2386C241.3 53.3631 240.289 52.9253 238.991 52.9253C237.753 52.9253 236.545 53.3329 235.368 54.1481C234.22 54.9632 233.134 56.0954 232.107 57.5445C230.296 60.1711 228.801 63.5978 227.624 67.8245C227.08 69.6964 226.673 71.5531 226.401 73.3947C226.129 75.2062 225.993 76.8516 225.993 78.3309C225.993 81.4104 226.567 83.4936 227.714 84.5805C228.107 85.0031 228.545 85.2748 229.028 85.3956C229.511 85.5164 230.054 85.5767 230.658 85.5767ZM272.865 94.5434C270.631 94.5434 268.653 94.2113 266.932 93.5471C265.211 92.8527 263.762 91.9017 262.585 90.6941C261.498 89.577 260.683 88.3392 260.139 86.9806C259.596 85.5918 259.324 84.1578 259.324 82.6784C259.324 80.6556 259.837 78.8291 260.864 77.1988C261.77 75.7496 262.902 74.708 264.26 74.074C266.676 69.7869 268.774 65.4394 270.555 61.0316C272.336 56.6237 274.042 51.8083 275.673 46.5852L289.394 44.7738C289.757 52.6234 290.089 58.6465 290.391 62.843C290.692 67.1603 290.949 70.3304 291.16 72.3531C291.342 74.708 291.432 76.761 291.432 78.5121C291.432 80.082 291.311 81.2595 291.07 82.0444C293.847 80.4141 296.066 78.8593 297.727 77.3799H301.622C299.418 79.9462 297.138 82.1501 294.783 83.9917C292.459 85.8334 290.013 87.4939 287.447 88.9732C285.605 90.9054 283.296 92.3395 280.518 93.2754C278.103 94.1208 275.552 94.5434 272.865 94.5434ZM269.921 87.2071C272.246 87.2071 274.103 86.573 275.491 85.305C277.152 83.7955 277.982 81.5614 277.982 78.6027C277.982 77.3648 277.907 75.81 277.756 73.9382L277.529 71.1757C277.258 68.7906 276.986 66.0282 276.714 62.8883L276.216 56.6388C275.34 59.4466 274.299 62.2392 273.091 65.0168C271.884 67.7641 270.419 70.8134 268.698 74.1646C270.117 74.9496 270.827 76.0213 270.827 77.3799C270.827 78.5876 270.465 79.6291 269.74 80.5047C268.955 81.4708 267.959 81.9538 266.751 81.9538C266.147 81.9538 265.634 81.8784 265.211 81.7274C264.819 81.5463 264.502 81.2142 264.26 80.7311C264.26 82.9652 264.698 84.6106 265.574 85.6673C266.449 86.6938 267.898 87.2071 269.921 87.2071ZM310.996 94.5434C306.437 94.5434 302.92 93.3962 300.444 91.1017C297.818 88.6562 296.504 84.8975 296.504 79.8254C296.504 77.9234 296.7 75.81 297.093 73.4853C297.455 71.1304 298.029 68.7906 298.814 66.4659C300.655 60.8202 303.267 56.3218 306.648 52.9706C310.815 48.8647 315.751 46.8117 321.457 46.8117C325.17 46.8117 327.918 47.7023 329.699 49.4836C331.088 50.9025 331.782 52.8499 331.782 55.3255C331.782 57.4992 331.299 59.1899 330.333 60.3976C329.427 61.5146 328.265 62.0732 326.846 62.0732C325.82 62.0732 324.733 61.7109 323.585 60.9863C324.34 59.0239 324.718 57.1973 324.718 55.5066C324.718 54.3292 324.491 53.4084 324.038 52.7442C323.616 52.0498 322.982 51.7026 322.136 51.7026C320.325 51.7026 318.438 53.3027 316.475 56.5029C314.694 59.3409 313.215 62.9487 312.037 67.3264C310.83 71.6135 310.226 75.493 310.226 78.9649C310.226 81.984 310.8 84.0672 311.947 85.2145C312.943 86.2409 314.604 86.7542 316.928 86.7542C320.28 86.7542 323.344 85.8485 326.121 84.037C327.299 83.2822 328.431 82.3916 329.518 81.3651C330.605 80.3084 331.873 78.98 333.322 77.3799H336.492C333.563 82.3312 330.197 86.2711 326.393 89.1997C321.714 92.7622 316.581 94.5434 310.996 94.5434ZM346.863 94.3623C342.274 94.3623 338.726 93.2452 336.22 91.0111C333.413 88.5355 332.009 84.7767 332.009 79.7348C332.009 77.8328 332.205 75.7345 332.597 73.44C332.99 71.1153 333.594 68.7755 334.409 66.4206C336.281 60.8051 338.953 56.3218 342.425 52.9706C346.621 48.8647 351.618 46.8117 357.414 46.8117C365.354 46.8117 369.325 51.7479 369.325 61.6203V61.7109C369.506 61.7713 369.657 61.8014 369.777 61.8014H370.321C372.374 61.8014 374.804 61.2278 377.612 60.0806C380.088 59.0541 382.427 57.771 384.631 56.2312L385.446 58.7673C383.635 60.6693 381.295 62.2845 378.427 63.6129C375.589 64.9413 372.449 65.8923 369.008 66.4659C368.645 70.6625 367.83 74.4967 366.562 77.9687C365.294 81.4104 363.664 84.3691 361.671 86.8448C359.709 89.26 357.46 91.1168 354.924 92.415C352.387 93.7132 349.701 94.3623 346.863 94.3623ZM350.576 86.0296C351.663 86.0296 352.765 85.5466 353.882 84.5805C355.029 83.5842 356.101 82.2105 357.097 80.4594C358.094 78.7083 358.954 76.6553 359.679 74.3005C360.403 71.9456 360.947 69.4246 361.309 66.7376C360.403 66.4961 359.754 66.0433 359.362 65.3791C358.999 64.7149 358.818 63.8695 358.818 62.843C358.818 61.575 359.075 60.5183 359.588 59.673C360.101 58.8276 360.811 58.2087 361.716 57.8162C361.596 55.8538 361.279 54.45 360.765 53.6046C360.494 53.182 360.147 52.88 359.724 52.6989C359.331 52.5178 358.818 52.4272 358.184 52.4272C356.101 52.4272 354.063 53.9971 352.07 57.137C350.229 59.9749 348.719 63.477 347.542 67.6434C346.395 71.7191 345.821 75.342 345.821 78.5121C345.821 80.0518 345.896 81.3047 346.047 82.2708C346.229 83.237 346.515 83.9917 346.908 84.5352C347.27 85.0786 347.738 85.4711 348.312 85.7126C348.885 85.9239 349.64 86.0296 350.576 86.0296Z" fill="white"/>
<path d="M26.145 84.1586C21.9787 85.8795 18.7784 88.4457 16.5443 91.8573C14.3102 95.2688 13.1931 99.4503 13.1931 104.402C13.1931 106.334 13.4045 107.874 13.8271 109.021C13.9479 109.413 14.0988 109.76 14.28 110.062C14.4008 110.274 14.4611 110.485 14.4611 110.696C11.1099 110.696 8.66449 110.032 7.12475 108.704C5.40388 107.255 4.54344 104.915 4.54344 101.684C4.54344 99.6616 4.9812 97.669 5.85674 95.7066C6.73227 93.714 7.9701 91.7969 9.57021 89.9552C11.0798 88.2042 12.8761 86.5739 14.9593 85.0643C17.0726 83.5246 19.3521 82.1962 21.7975 81.0791C26.93 78.7544 32.0322 77.5921 37.1043 77.5921C38.4931 77.5921 39.7309 77.6525 40.8178 77.7732L26.0544 147.152H12.7403L26.145 84.1586ZM72.2465 147.695C68.4122 147.695 65.5743 146.608 63.7326 144.435C62.1325 142.563 61.3325 140.163 61.3325 137.234C61.3325 135.845 61.4985 134.23 61.8306 132.388C62.1929 130.547 62.7212 128.177 63.4156 125.279C64.11 122.32 64.6233 119.965 64.9554 118.214C65.3176 116.433 65.4988 114.893 65.4988 113.595C65.4988 110.425 64.3817 108.84 62.1476 108.84C60.5777 108.84 59.1285 109.67 57.8001 111.33C56.6831 112.749 55.717 114.772 54.9018 117.399L48.607 147.152H35.2475L45.0747 100.779H58.4341L57.4378 105.579C59.2493 103.556 61.1966 102.137 63.2798 101.322C64.8195 100.718 66.48 100.416 68.2613 100.416C71.4011 100.416 73.8768 101.232 75.6882 102.862C77.6204 104.643 78.5865 107.315 78.5865 110.878C78.5865 113.021 78.1941 115.814 77.4091 119.255C77.1978 120.252 76.8506 121.746 76.3675 123.739C75.492 127.09 74.858 129.762 74.4655 131.754C74.224 133.023 74.1032 134.049 74.1032 134.834C74.1032 136.072 74.3749 137.038 74.9183 137.732C75.492 138.396 76.4581 138.729 77.8167 138.729C79.6583 138.729 81.2131 137.974 82.4812 136.464C83.4473 135.317 84.4888 133.34 85.6059 130.532H89.5005C87.206 137.325 84.3077 142.08 80.8056 144.797C78.3299 146.729 75.4769 147.695 72.2465 147.695ZM101.094 95.7519C100.098 95.7519 99.1465 95.5707 98.2408 95.2084C97.3351 94.816 96.5501 94.2876 95.8859 93.6234C95.2217 92.9894 94.6934 92.2195 94.3009 91.3138C93.9386 90.4081 93.7574 89.4571 93.7574 88.4608C93.7574 87.4645 93.9386 86.5135 94.3009 85.6077C94.6934 84.702 95.2217 83.902 95.8859 83.2076C96.5501 82.5132 97.3351 81.9848 98.2408 81.6226C99.1465 81.2301 100.098 81.0338 101.094 81.0338C102.09 81.0338 103.041 81.2301 103.947 81.6226C104.853 81.9848 105.653 82.5132 106.347 83.2076C107.041 83.902 107.57 84.702 107.932 85.6077C108.325 86.5135 108.521 87.4645 108.521 88.4608C108.521 89.4571 108.325 90.4081 107.932 91.3138C107.57 92.2195 107.041 92.9894 106.347 93.6234C105.653 94.2876 104.853 94.816 103.947 95.2084C103.041 95.5707 102.09 95.7519 101.094 95.7519ZM94.799 147.695C91.8403 147.695 89.5005 146.82 87.7797 145.069C85.8474 143.136 84.8813 140.314 84.8813 136.6C84.8813 134.849 85.1229 132.826 85.6059 130.532L91.9007 100.779H105.26L98.6031 132.298C98.3616 133.083 98.2408 134.079 98.2408 135.287C98.2408 136.555 98.5276 137.445 99.1012 137.959C99.705 138.472 100.671 138.729 102 138.729C102.905 138.729 103.781 138.532 104.626 138.14C105.502 137.717 106.302 137.144 107.026 136.419C108.506 134.94 109.623 132.977 110.378 130.532H114.272C112.612 135.211 110.528 138.94 108.023 141.717C105.909 143.982 103.524 145.612 100.867 146.608C98.9352 147.333 96.9124 147.695 94.799 147.695ZM123.692 147.695C119.133 147.695 115.616 146.548 113.14 144.254C110.513 141.808 109.2 138.049 109.2 132.977C109.2 131.075 109.396 128.962 109.789 126.637C110.151 124.282 110.725 121.942 111.51 119.618C113.351 113.972 115.963 109.474 119.344 106.122C123.511 102.016 128.447 99.9635 134.153 99.9635C137.866 99.9635 140.614 100.854 142.395 102.635C143.784 104.054 144.478 106.002 144.478 108.477C144.478 110.651 143.995 112.342 143.029 113.549C142.123 114.666 140.961 115.225 139.542 115.225C138.515 115.225 137.429 114.863 136.281 114.138C137.036 112.176 137.413 110.349 137.413 108.658C137.413 107.481 137.187 106.56 136.734 105.896C136.311 105.202 135.677 104.854 134.832 104.854C133.021 104.854 131.134 106.455 129.171 109.655C127.39 112.493 125.911 116.101 124.733 120.478C123.526 124.765 122.922 128.645 122.922 132.117C122.922 135.136 123.495 137.219 124.643 138.366C125.639 139.393 127.299 139.906 129.624 139.906C132.975 139.906 136.04 139 138.817 137.189C139.995 136.434 141.127 135.543 142.214 134.517C143.301 133.46 144.569 132.132 146.018 130.532H149.188C146.259 135.483 142.893 139.423 139.089 142.351C134.409 145.914 129.277 147.695 123.692 147.695ZM161.506 95.7519C160.509 95.7519 159.558 95.5707 158.653 95.2084C157.747 94.816 156.962 94.2876 156.298 93.6234C155.634 92.9894 155.105 92.2195 154.713 91.3138C154.351 90.4081 154.169 89.4571 154.169 88.4608C154.169 87.4645 154.351 86.5135 154.713 85.6077C155.105 84.702 155.634 83.902 156.298 83.2076C156.962 82.5132 157.747 81.9848 158.653 81.6226C159.558 81.2301 160.509 81.0338 161.506 81.0338C162.502 81.0338 163.453 81.2301 164.359 81.6226C165.264 81.9848 166.065 82.5132 166.759 83.2076C167.453 83.902 167.982 84.702 168.344 85.6077C168.736 86.5135 168.933 87.4645 168.933 88.4608C168.933 89.4571 168.736 90.4081 168.344 91.3138C167.982 92.2195 167.453 92.9894 166.759 93.6234C166.065 94.2876 165.264 94.816 164.359 95.2084C163.453 95.5707 162.502 95.7519 161.506 95.7519ZM155.211 147.695C152.252 147.695 149.912 146.82 148.192 145.069C146.259 143.136 145.293 140.314 145.293 136.6C145.293 134.849 145.535 132.826 146.018 130.532L152.313 100.779H165.672L159.015 132.298C158.773 133.083 158.653 134.079 158.653 135.287C158.653 136.555 158.94 137.445 159.513 137.959C160.117 138.472 161.083 138.729 162.411 138.729C163.317 138.729 164.193 138.532 165.038 138.14C165.914 137.717 166.714 137.144 167.438 136.419C168.918 134.94 170.035 132.977 170.789 130.532H174.684C173.024 135.211 170.94 138.94 168.435 141.717C166.321 143.982 163.936 145.612 161.279 146.608C159.347 147.333 157.324 147.695 155.211 147.695ZM181.975 147.695C178.443 147.695 175.59 146.593 173.416 144.389C170.88 141.793 169.612 137.929 169.612 132.796C169.612 130.622 169.838 128.328 170.291 125.913C170.714 123.497 171.348 121.112 172.193 118.757C174.126 113.444 176.767 109.157 180.118 105.896C183.983 102.183 188.436 100.326 193.478 100.326C195.984 100.326 197.856 100.764 199.093 101.639C200.361 102.484 200.995 103.617 200.995 105.036V105.715L201.992 100.779H215.351L208.694 132.298C208.422 133.204 208.286 134.2 208.286 135.287C208.286 137.944 209.555 139.272 212.091 139.272C213.781 139.272 215.321 138.412 216.71 136.691C217.887 135.242 218.853 133.189 219.608 130.532H223.503C221.842 135.242 219.834 138.97 217.48 141.717C215.487 143.982 213.238 145.612 210.732 146.608C208.89 147.333 206.943 147.695 204.89 147.695C202.263 147.695 200.165 146.986 198.595 145.567C197.055 144.118 196.12 141.989 195.787 139.181C194.036 141.657 192.195 143.589 190.263 144.978C187.787 146.79 185.024 147.695 181.975 147.695ZM187.998 138.729C188.693 138.729 189.417 138.547 190.172 138.185C190.957 137.823 191.712 137.31 192.436 136.645C194.067 135.075 195.153 133.038 195.697 130.532L200.135 109.609C200.135 109.308 200.059 108.96 199.909 108.568C199.788 108.145 199.607 107.753 199.365 107.39C198.641 106.515 197.629 106.077 196.331 106.077C195.093 106.077 193.885 106.485 192.708 107.3C191.561 108.115 190.474 109.247 189.447 110.696C187.636 113.323 186.141 116.75 184.964 120.976C184.421 122.848 184.013 124.705 183.741 126.547C183.47 128.358 183.334 130.003 183.334 131.483C183.334 134.562 183.907 136.645 185.055 137.732C185.447 138.155 185.885 138.427 186.368 138.547C186.851 138.668 187.394 138.729 187.998 138.729ZM253.12 147.695C249.286 147.695 246.448 146.608 244.606 144.435C243.006 142.563 242.206 140.163 242.206 137.234C242.206 135.845 242.372 134.23 242.704 132.388C243.066 130.547 243.595 128.177 244.289 125.279C244.983 122.32 245.497 119.965 245.829 118.214C246.191 116.433 246.372 114.893 246.372 113.595C246.372 110.425 245.255 108.84 243.021 108.84C241.451 108.84 240.002 109.67 238.674 111.33C237.557 112.749 236.59 114.772 235.775 117.399L229.48 147.152H216.121L225.948 100.779H239.308L238.311 105.579C240.123 103.556 242.07 102.137 244.153 101.322C245.693 100.718 247.353 100.416 249.135 100.416C252.275 100.416 254.75 101.232 256.562 102.862C258.494 104.643 259.46 107.315 259.46 110.878C259.46 113.021 259.068 115.814 258.283 119.255C258.071 120.252 257.724 121.746 257.241 123.739C256.365 127.09 255.731 129.762 255.339 131.754C255.097 133.023 254.977 134.049 254.977 134.834C254.977 136.072 255.248 137.038 255.792 137.732C256.365 138.396 257.332 138.729 258.69 138.729C260.532 138.729 262.087 137.974 263.355 136.464C264.321 135.317 265.362 133.34 266.479 130.532H270.374C268.079 137.325 265.181 142.08 261.679 144.797C259.203 146.729 256.35 147.695 253.12 147.695ZM275.672 147.695C272.714 147.695 270.374 146.82 268.653 145.069C266.721 143.136 265.755 140.314 265.755 136.6C265.755 134.849 265.996 132.826 266.479 130.532L272.05 104.492H268.97L269.74 100.779H272.774L275.582 87.9626L289.304 86.1059L286.134 100.779H291.704L290.979 104.492H285.409L279.477 132.298C279.235 133.083 279.114 134.079 279.114 135.287C279.114 136.555 279.401 137.445 279.975 137.959C280.579 138.472 281.545 138.729 282.873 138.729C283.779 138.729 284.654 138.532 285.5 138.14C286.375 137.717 287.175 137.144 287.9 136.419C289.379 134.94 290.496 132.977 291.251 130.532H295.146C293.485 135.211 291.402 138.94 288.896 141.717C286.783 143.982 284.398 145.612 281.741 146.608C279.809 147.333 277.786 147.695 275.672 147.695ZM304.565 147.695C300.006 147.695 296.489 146.548 294.013 144.254C291.387 141.808 290.074 138.049 290.074 132.977C290.074 131.075 290.27 128.962 290.662 126.637C291.025 124.312 291.583 121.988 292.338 119.663C293.183 117.067 294.255 114.606 295.553 112.281C296.882 109.957 298.421 107.904 300.172 106.122C304.218 102.016 309.199 99.9635 315.117 99.9635C318.891 99.9635 321.638 100.869 323.359 102.681C324.687 104.1 325.352 106.153 325.352 108.84C325.352 111.466 324.778 113.942 323.631 116.267C322.483 118.561 320.898 120.599 318.876 122.38C316.853 124.131 314.558 125.535 311.992 126.592C309.426 127.618 306.769 128.222 304.022 128.403C303.871 129.973 303.795 131.211 303.795 132.117C303.795 135.136 304.369 137.219 305.516 138.366C306.512 139.393 308.173 139.906 310.498 139.906C313.849 139.906 316.913 139 319.691 137.189C320.868 136.434 322 135.543 323.087 134.517C324.174 133.46 325.442 132.132 326.891 130.532H330.061C327.133 135.483 323.767 139.423 319.962 142.351C315.283 145.914 310.15 147.695 304.565 147.695ZM304.746 123.965C306.467 123.844 308.143 123.346 309.773 122.471C311.403 121.595 312.853 120.448 314.121 119.029C315.389 117.58 316.385 115.965 317.109 114.183C317.834 112.372 318.196 110.53 318.196 108.658C318.196 107.421 318.015 106.485 317.653 105.851C317.321 105.187 316.732 104.854 315.887 104.854C314.77 104.854 313.638 105.398 312.49 106.485C311.373 107.572 310.286 109.066 309.23 110.968C308.264 112.749 307.388 114.772 306.603 117.036C305.818 119.301 305.199 121.61 304.746 123.965ZM337.443 147.695C335.209 147.695 333.231 147.363 331.51 146.699C329.79 146.005 328.34 145.054 327.163 143.846C326.076 142.729 325.261 141.491 324.718 140.132C324.174 138.744 323.902 137.31 323.902 135.83C323.902 133.807 324.416 131.981 325.442 130.351C326.348 128.901 327.48 127.86 328.839 127.226C331.254 122.939 333.352 118.591 335.133 114.183C336.915 109.776 338.62 104.96 340.251 99.7371L353.973 97.9256C354.335 105.775 354.667 111.798 354.969 115.995C355.271 120.312 355.527 123.482 355.739 125.505C355.92 127.86 356.01 129.913 356.01 131.664C356.01 133.234 355.89 134.411 355.648 135.196C358.426 133.566 360.645 132.011 362.305 130.532H366.2C363.996 133.098 361.716 135.302 359.362 137.144C357.037 138.985 354.591 140.646 352.025 142.125C350.184 144.057 347.874 145.491 345.096 146.427C342.681 147.273 340.13 147.695 337.443 147.695ZM334.499 140.359C336.824 140.359 338.681 139.725 340.07 138.457C341.73 136.947 342.56 134.713 342.56 131.754C342.56 130.517 342.485 128.962 342.334 127.09L342.107 124.328C341.836 121.942 341.564 119.18 341.292 116.04L340.794 109.791C339.919 112.598 338.877 115.391 337.669 118.169C336.462 120.916 334.998 123.965 333.277 127.316C334.696 128.101 335.405 129.173 335.405 130.532C335.405 131.739 335.043 132.781 334.318 133.657C333.533 134.623 332.537 135.106 331.329 135.106C330.726 135.106 330.212 135.03 329.79 134.879C329.397 134.698 329.08 134.366 328.839 133.883C328.839 136.117 329.276 137.762 330.152 138.819C331.027 139.846 332.477 140.359 334.499 140.359Z" fill="white"/>
<path d="M147.553 113.274L154.523 81.9061C153.87 83.6488 154.741 78.8564 158.227 78.8564C161.712 78.8564 169.118 80.3087 171.732 81.9061C172.168 80.8896 174.521 78.8564 180.446 78.8564C186.371 78.8564 188.724 79.7278 189.159 80.1635L193.516 78.8564C196.856 79.873 203.885 81.5576 205.279 80.1635C206.673 78.7693 210.507 79.5826 212.25 80.1635L213.557 78.8564L221.835 80.1635C221.109 83.5036 219.656 90.5324 219.656 91.9266C219.656 93.3207 222.561 92.5075 224.013 91.9266C224.013 94.3954 222.706 99.8558 217.478 101.947C210.943 104.561 211.379 101.947 210.072 103.254C209.026 104.3 203.827 102.818 201.358 101.947L196.566 95.8476L193.516 103.254C191.192 102.818 186.197 102.208 184.803 103.254C183.06 104.561 180.01 101.947 177.832 101.947C175.218 104.125 169.118 101.947 166.504 101.947C165.11 104.038 161.276 102.818 159.534 101.947L157.355 108.918L147.553 113.274Z" fill="black"/>
<path d="M156.564 81.4904H161.657L161.087 84.1489C162.284 83.1361 163.659 82.6297 165.213 82.6297C166.536 82.6297 167.56 83.0325 168.285 83.8381C169.114 84.7818 169.528 86.2376 169.528 88.2056C169.528 90.1045 169.287 91.8883 168.803 93.557C168.193 95.686 167.307 97.3375 166.145 98.5113C164.718 99.9614 162.945 100.686 160.828 100.686C160.011 100.686 159.338 100.56 158.808 100.307C158.405 100.123 158.077 99.8291 157.824 99.4263L155.994 108.04L150.66 109.318L156.564 81.4904ZM159.74 97.6137C160.88 97.6137 161.858 97.0325 162.675 95.8702C163.319 94.961 163.837 93.6836 164.229 92.0379C164.539 90.7144 164.695 89.4024 164.695 88.102C164.695 86.9396 164.482 86.111 164.056 85.6162C163.78 85.317 163.4 85.1674 162.917 85.1674C162.491 85.1674 162.059 85.317 161.622 85.6162C161.185 85.9154 160.805 86.347 160.483 86.9109L158.394 96.8023C158.474 97.0325 158.624 97.2282 158.843 97.3893C159.073 97.5389 159.372 97.6137 159.74 97.6137ZM174.655 100.686C173.309 100.686 172.221 100.266 171.393 99.4263C170.426 98.4365 169.943 96.9635 169.943 95.007C169.943 94.1784 170.029 93.3038 170.202 92.3831C170.363 91.4624 170.604 90.5533 170.927 89.6556C171.663 87.6301 172.67 85.996 173.947 84.753C175.421 83.3375 177.118 82.6297 179.04 82.6297C179.995 82.6297 180.709 82.7966 181.181 83.1304C181.664 83.4526 181.906 83.8842 181.906 84.4251V84.684L182.285 82.8024H187.378L184.84 94.8171C184.737 95.1624 184.685 95.5422 184.685 95.9565C184.685 96.9692 185.168 97.4756 186.135 97.4756C186.779 97.4756 187.366 97.1476 187.896 96.4916C188.345 95.9392 188.713 95.1566 189 94.1439H190.485C189.852 95.9392 189.087 97.3605 188.189 98.4078C187.43 99.2709 186.572 99.8924 185.617 100.272C184.915 100.548 184.173 100.686 183.39 100.686C182.389 100.686 181.589 100.416 180.991 99.8751C180.404 99.3227 180.047 98.5113 179.92 97.4411C179.253 98.3847 178.551 99.1213 177.814 99.6507C176.871 100.341 175.818 100.686 174.655 100.686ZM176.951 97.2684C177.216 97.2684 177.492 97.1994 177.78 97.0613C178.079 96.9232 178.367 96.7275 178.643 96.4744C179.264 95.8759 179.679 95.0991 179.886 94.1439L181.578 86.1686C181.578 86.0535 181.549 85.9212 181.491 85.7715C181.445 85.6104 181.376 85.4608 181.284 85.3227C181.008 84.989 180.622 84.8221 180.128 84.8221C179.656 84.8221 179.195 84.9775 178.747 85.2882C178.309 85.5989 177.895 86.0305 177.504 86.5829C176.813 87.5841 176.243 88.8903 175.795 90.5015C175.587 91.215 175.432 91.9228 175.329 92.6248C175.225 93.3153 175.173 93.9425 175.173 94.5064C175.173 95.6803 175.392 96.4744 175.829 96.8887C175.979 97.0498 176.146 97.1534 176.33 97.1994C176.514 97.2454 176.721 97.2684 176.951 97.2684ZM191.417 82.8024H196.51L196.061 84.9947C196.866 84.2812 197.522 83.7748 198.029 83.4756C198.811 83.0268 199.577 82.8024 200.325 82.8024C201.084 82.8024 201.694 83.0728 202.155 83.6137C202.362 83.8554 202.517 84.1374 202.621 84.4596C202.724 84.7703 202.776 85.1041 202.776 85.4608C202.776 85.7831 202.724 86.0938 202.621 86.393C202.517 86.6922 202.362 86.9627 202.155 87.2043C201.924 87.4575 201.642 87.6589 201.309 87.8085C200.986 87.9581 200.624 88.0329 200.221 88.0329C199.91 88.0329 199.663 87.9812 199.479 87.8776C199.295 87.774 199.151 87.6244 199.047 87.4288C198.955 87.2331 198.892 87.0432 198.857 86.8591C198.754 86.3642 198.65 86.0362 198.547 85.8751C198.466 85.76 198.34 85.7025 198.167 85.7025C197.672 85.7025 197.252 85.8061 196.907 86.0132C196.562 86.2204 196.124 86.5656 195.595 87.049L192.764 100.479H187.671L191.417 82.8024ZM206.557 100.686C205.21 100.686 204.123 100.266 203.294 99.4263C202.327 98.4365 201.844 96.9635 201.844 95.007C201.844 94.1784 201.93 93.3038 202.103 92.3831C202.264 91.4624 202.506 90.5533 202.828 89.6556C203.564 87.6301 204.571 85.996 205.849 84.753C207.322 83.3375 209.019 82.6297 210.941 82.6297C211.896 82.6297 212.61 82.7966 213.082 83.1304C213.565 83.4526 213.807 83.8842 213.807 84.4251V84.684L214.187 82.8024H219.279L216.741 94.8171C216.638 95.1624 216.586 95.5422 216.586 95.9565C216.586 96.9692 217.069 97.4756 218.036 97.4756C218.681 97.4756 219.268 97.1476 219.797 96.4916C220.246 95.9392 220.614 95.1566 220.902 94.1439H222.386C221.753 95.9392 220.988 97.3605 220.09 98.4078C219.331 99.2709 218.473 99.8924 217.518 100.272C216.816 100.548 216.074 100.686 215.291 100.686C214.29 100.686 213.49 100.416 212.892 99.8751C212.305 99.3227 211.948 98.5113 211.822 97.4411C211.154 98.3847 210.452 99.1213 209.716 99.6507C208.772 100.341 207.719 100.686 206.557 100.686ZM208.852 97.2684C209.117 97.2684 209.393 97.1994 209.681 97.0613C209.98 96.9232 210.268 96.7275 210.544 96.4744C211.166 95.8759 211.58 95.0991 211.787 94.1439L213.479 86.1686C213.479 86.0535 213.45 85.9212 213.393 85.7715C213.347 85.6104 213.277 85.4608 213.185 85.3227C212.909 84.989 212.524 84.8221 212.029 84.8221C211.557 84.8221 211.097 84.9775 210.648 85.2882C210.21 85.5989 209.796 86.0305 209.405 86.5829C208.714 87.5841 208.145 88.8903 207.696 90.5015C207.489 91.215 207.333 91.9228 207.23 92.6248C207.126 93.3153 207.074 93.9425 207.074 94.5064C207.074 95.6803 207.293 96.4744 207.73 96.8887C207.88 97.0498 208.047 97.1534 208.231 97.1994C208.415 97.2454 208.622 97.2684 208.852 97.2684Z" fill="#FF5757"/>
<path d="M436.39 61.0155C433.484 55.2691 430.287 52.8168 430.967 49.2233C424.468 53.44 433.225 59.8419 426.143 70.323C431.744 53.2781 418.681 47.7098 423.885 37.9167C406.776 43.1128 417.33 57.2116 409.398 64.3176C412.579 58.4094 411.365 49.6685 405.74 45.5084C407.205 52.922 402.972 55.2125 398.755 60.5623C395.841 64.2367 394.895 67.2475 394.895 72.0793C394.895 78.1493 398.067 86.6151 405.805 89.205C401.628 83.0459 401.353 76.3041 406.614 70.9057C405.246 75.7537 409.649 80.3831 412.652 78.4245C414.408 77.2752 412.765 75.4138 413.704 71.2861C414.772 66.6405 417.257 64.8113 420.567 63.3383C420.106 66.3653 419.507 71.2618 419.96 74.4263C420.259 76.2312 421.166 78.8697 422.526 80.375C425.391 83.6934 429.761 76.911 429.761 74.1997C431.874 76.5307 433.581 80.4722 432.513 84.5513C432.367 85.1097 431.194 88.0638 431.088 88.5494C434.747 85.4173 437.644 79.7923 438.211 75.7456C438.874 70.841 438.947 66.0982 436.39 61.0155ZM408.815 63.3626C408.686 63.6216 408.581 63.8401 408.483 64.0263C408.297 64.3905 408.184 64.5928 408.184 64.5928C408.184 64.5928 408.233 64.3581 408.338 63.9696C408.386 63.7754 408.451 63.5326 408.524 63.2655C408.605 62.9984 408.645 62.6746 408.726 62.3428C408.791 62.0029 408.896 61.6468 408.945 61.2583C409.001 60.8698 409.066 60.4651 409.131 60.0443C409.22 59.1945 409.309 58.2961 409.309 57.3896C409.301 56.9364 409.325 56.4832 409.277 56.038C409.252 55.5929 409.228 55.1558 409.171 54.7269C409.082 53.877 408.945 53.092 408.791 52.4202C408.508 51.0767 408.176 50.1945 408.176 50.1945C408.176 50.1945 408.322 50.3807 408.524 50.7368C408.71 51.101 409.001 51.619 409.244 52.2826C409.382 52.6145 409.487 52.9787 409.6 53.3672C409.689 53.7637 409.819 54.1765 409.884 54.6136C409.965 55.0506 410.037 55.5038 410.062 55.9733C410.118 56.4346 410.11 56.9121 410.118 57.3896C410.118 57.8671 410.062 58.3366 410.037 58.806C409.997 59.2673 409.9 59.7205 409.835 60.1576C409.754 60.5946 409.633 61.0074 409.528 61.3959C409.438 61.7925 409.277 62.1405 409.163 62.4804C409.058 62.8042 408.953 63.1117 408.815 63.3626ZM425.998 64.5523C425.941 64.7547 425.884 64.9408 425.836 65.1108C425.633 65.7745 425.512 66.1549 425.512 66.1549C425.512 66.1549 425.544 65.7583 425.593 65.0703C425.609 64.9003 425.625 64.7142 425.642 64.5119C425.633 64.3095 425.625 64.0829 425.617 63.8482C425.601 63.3788 425.609 62.8446 425.52 62.27C425.488 61.9867 425.447 61.6872 425.415 61.3797C425.366 61.0721 425.294 60.7565 425.237 60.4328C425.132 59.7772 424.929 59.1054 424.751 58.4094C424.573 57.7134 424.314 57.0011 424.104 56.2727C423.853 55.5443 423.618 54.8078 423.343 54.0794C422.841 52.6064 422.283 51.1253 421.846 49.7089C421.619 48.9967 421.425 48.3088 421.271 47.637C421.085 46.9814 421.012 46.3178 420.907 45.7269C420.842 45.128 420.81 44.5696 420.81 44.0759C420.85 43.5741 420.866 43.1451 420.939 42.8052C421.125 42.1415 421.239 41.7611 421.239 41.7611C421.239 41.7611 421.214 42.1577 421.182 42.8457C421.182 43.1937 421.255 43.5984 421.279 44.0516C421.352 44.5129 421.473 45.0309 421.595 45.5893C421.765 46.1478 421.911 46.7467 422.145 47.378C422.348 48.0093 422.607 48.6649 422.857 49.3528C423.384 50.7206 423.95 52.1774 424.492 53.6666C425.018 55.1558 425.488 56.6855 425.795 58.1504C425.949 58.8869 426.087 59.5991 426.135 60.2952C426.168 60.6432 426.216 60.975 426.224 61.2988C426.224 61.6225 426.224 61.9381 426.216 62.2457C426.241 62.8446 426.151 63.4031 426.079 63.8806C426.054 64.1234 426.022 64.35 425.998 64.5523ZM437.499 73.6089C437.442 74.2321 437.385 74.8149 437.329 75.3571C437.24 75.8913 437.142 76.385 437.053 76.8139C436.981 77.251 436.835 77.6071 436.754 77.9147C436.568 78.5136 436.454 78.8616 436.454 78.8616C436.454 78.8616 436.503 78.5055 436.592 77.8823C436.633 77.5747 436.73 77.2024 436.746 76.7654C436.778 76.3283 436.811 75.8427 436.867 75.3166C436.875 74.7825 436.883 74.2078 436.9 73.6008C436.859 72.9938 436.843 72.3544 436.786 71.6908C436.713 71.0352 436.657 70.3473 436.535 69.6674C436.438 68.9795 436.301 68.2834 436.147 67.5955C436.017 66.8995 435.815 66.2196 435.637 65.5478C435.427 64.8842 435.257 64.2124 435.022 63.5892C434.601 62.3266 434.164 61.1612 433.735 60.1819C433.314 59.2026 432.95 58.377 432.675 57.8186C432.4 57.252 432.246 56.9283 432.246 56.9283C432.246 56.9283 432.464 57.2197 432.812 57.7376C433.144 58.2718 433.654 59.0245 434.148 59.9876C434.407 60.4651 434.658 60.9912 434.933 61.5497C435.184 62.1162 435.475 62.707 435.702 63.3464C435.953 63.9777 436.179 64.6414 436.39 65.3293C436.576 66.0172 436.794 66.7133 436.94 67.4255C437.094 68.1377 437.223 68.85 437.312 69.5622C437.442 70.2663 437.442 70.9785 437.499 71.6584C437.547 72.3302 437.507 72.9857 437.499 73.6089Z" fill="#FF5757"/>
<path d="M425.1 130.611C420.629 135.185 414.926 139.384 409.037 142.455C406.969 143.534 404.866 144.476 402.808 145.257C395.729 147.931 386.466 149.749 381.674 146.854C381.378 146.67 381.104 146.474 380.859 146.255C381.219 147.261 381.909 148.119 382.984 148.768C387.421 151.455 396.219 149.98 403.635 147.176C411.727 144.119 419.677 138.771 425.532 132.782C433.325 124.819 436.37 115.904 435.324 108.944C435.352 115.772 431.798 123.766 425.1 130.611Z" fill="white"/>
<path d="M400.488 141.921C408.47 138.704 416.881 132.779 422.997 126.073C433.739 114.294 436.545 99.2923 429.521 91.1718C429.516 91.1571 429.5 91.1487 429.495 91.1341C427.78 88.5094 423.343 85.7518 417.935 88.7677C416.966 89.308 415.998 90.0131 415.044 90.884C412.292 93.3833 411.074 96.2095 409.895 98.9528L409.683 99.4447C408.266 102.721 406.309 106.585 402.556 110.338C399.666 113.227 396.377 115.714 393.193 118.115C388.877 121.373 384.798 124.457 381.567 128.501C377.593 133.49 374.637 140.44 379.416 143.59C384.122 146.719 393.391 144.784 400.488 141.921ZM408.214 132.971C408.362 133.505 408.411 133.817 408.411 133.817C408.411 133.817 408.108 133.664 407.663 133.365C407.428 133.218 407.179 133.026 406.861 132.83C406.523 132.653 406.137 132.452 405.764 132.208C405.379 131.97 404.868 131.794 404.415 131.552C403.971 131.295 403.381 131.12 402.873 130.873C402.363 130.619 401.723 130.455 401.163 130.211C400.562 130.006 399.946 129.794 399.343 129.582C398.721 129.391 398.084 129.198 397.473 129C396.841 128.822 396.223 128.645 395.619 128.469C394.402 128.131 393.258 127.813 392.276 127.544C391.283 127.28 390.457 127.037 389.88 126.864C389.301 126.682 388.962 126.585 388.962 126.585C388.962 126.585 389.418 126.47 390.183 126.364C390.946 126.252 392.025 126.128 393.253 126.095C394.491 126.048 395.887 126.078 397.29 126.251C398.713 126.405 400.122 126.715 401.468 127.12C402.107 127.363 402.765 127.579 403.35 127.861C403.927 128.156 404.519 128.417 404.986 128.782C405.461 129.134 405.961 129.438 406.305 129.837C406.672 130.224 407.035 130.56 407.273 130.958C407.53 131.336 407.733 131.709 407.905 132.031C408.068 132.365 408.129 132.714 408.214 132.971ZM413.484 101.48C413.884 101.196 414.46 100.84 415.163 100.465C415.513 100.27 415.894 100.092 416.298 99.9017C416.705 99.7185 417.131 99.5154 417.572 99.3564C418.013 99.1974 418.465 99.0321 418.934 98.8752C419.397 98.7036 419.86 98.6107 420.315 98.4958C420.776 98.3956 421.233 98.288 421.674 98.2077C422.114 98.1273 422.532 98.1026 422.946 98.0631C423.348 98.03 423.742 98.0105 424.099 98.0025C424.465 97.9808 424.775 98.0336 425.068 98.0706C426.233 98.2114 426.883 98.4838 426.883 98.4838C426.883 98.4838 425.87 98.8919 424.545 99.2399C424.214 99.3287 423.865 99.4018 423.48 99.5294C423.102 99.636 422.713 99.7489 422.305 99.8461C421.908 99.9369 421.489 100.04 421.081 100.137C420.655 100.262 420.233 100.358 419.814 100.461C418.977 100.633 418.124 100.874 417.325 101.041C416.924 101.117 416.534 101.23 416.171 101.302C415.797 101.38 415.446 101.446 415.121 101.514C414.464 101.663 413.908 101.756 413.518 101.826C413.114 101.895 412.887 101.935 412.887 101.935C412.887 101.935 413.081 101.756 413.484 101.48ZM408.865 108.523C409.122 108.414 409.465 108.241 409.823 108.111C410.189 107.967 410.605 107.814 411.051 107.669C411.505 107.511 411.972 107.39 412.477 107.265C412.983 107.139 413.528 106.974 414.053 106.908C414.586 106.827 415.138 106.72 415.69 106.655C416.257 106.556 416.772 106.582 417.309 106.552C417.839 106.543 418.369 106.534 418.879 106.546C419.38 106.57 419.826 106.669 420.285 106.726C420.743 106.784 421.159 106.873 421.546 106.953C421.963 107.007 422.26 107.181 422.565 107.297C423.778 107.785 424.409 108.286 424.409 108.286C424.409 108.286 423.226 108.458 421.721 108.463C421.339 108.476 420.954 108.439 420.499 108.476C420.053 108.498 419.585 108.533 419.13 108.527C418.665 108.533 418.185 108.532 417.705 108.53C417.198 108.57 416.709 108.582 416.208 108.6C415.708 108.618 415.231 108.589 414.727 108.635C414.22 108.675 413.753 108.674 413.28 108.695C412.816 108.701 412.347 108.737 411.915 108.76C411.474 108.798 411.069 108.78 410.678 108.807C409.898 108.868 409.247 108.875 408.779 108.91C408.317 108.924 408.03 108.945 408.03 108.945C408.03 108.945 408.332 108.768 408.865 108.523ZM404.696 116.532C405.993 116.34 407.474 116.183 408.979 116.178C410.501 116.146 412.044 116.259 413.526 116.467C414.241 116.616 414.98 116.716 415.633 116.917C416.285 117.118 416.953 117.285 417.511 117.564C418.079 117.83 418.643 118.046 419.081 118.367C419.528 118.673 419.975 118.937 420.297 119.27C420.629 119.589 420.906 119.904 421.154 120.174C421.391 120.45 421.52 120.761 421.647 120.986C421.895 121.456 422 121.736 422 121.736C422 121.736 421.659 121.631 421.122 121.417C420.85 121.318 420.549 121.172 420.182 121.029C419.795 120.906 419.351 120.771 418.908 120.601C418.466 120.431 417.888 120.336 417.366 120.166C416.853 119.983 416.211 119.897 415.623 119.73C415.046 119.556 414.344 119.487 413.717 119.324C413.061 119.194 412.363 119.097 411.696 118.974C410.998 118.876 410.31 118.773 409.626 118.677C408.93 118.587 408.25 118.505 407.581 118.417C406.235 118.256 404.987 118.108 403.906 117.981C402.815 117.868 401.907 117.74 401.266 117.654C400.622 117.561 400.257 117.504 400.257 117.504C400.257 117.504 400.723 117.34 401.5 117.15C402.291 116.961 403.4 116.725 404.696 116.532ZM379.551 138.925C379.481 138.591 379.412 138.177 379.405 137.668C379.377 137.423 379.418 137.14 379.451 136.834C379.473 136.535 379.515 136.216 379.627 135.867C379.725 135.517 379.796 135.164 379.925 134.788C380.08 134.406 380.23 134.01 380.391 133.607C380.536 133.196 380.81 132.773 381.028 132.339C381.245 131.905 381.485 131.458 381.818 131.012C382.124 130.563 382.427 130.107 382.742 129.645C383.073 129.191 383.47 128.735 383.839 128.277C384.56 127.345 385.443 126.461 386.293 125.561C387.126 124.645 388.115 123.841 389.01 122.994C389.9 122.133 390.899 121.402 391.823 120.643C392.288 120.271 392.743 119.913 393.196 119.547C393.654 119.196 394.124 118.882 394.567 118.565C395.455 117.94 396.297 117.34 397.075 116.785C397.838 116.228 398.602 115.794 399.25 115.371C399.903 114.964 400.465 114.607 400.94 114.307C401.883 113.729 402.417 113.406 402.417 113.406C402.417 113.406 401.914 113.782 401.025 114.443C400.584 114.766 400.047 115.161 399.423 115.614C398.815 116.075 398.093 116.556 397.361 117.129C396.618 117.708 395.821 118.326 394.971 118.983C394.547 119.316 394.106 119.639 393.678 120C393.25 120.36 392.822 120.721 392.374 121.101C391.5 121.849 390.546 122.598 389.696 123.42C388.846 124.242 387.879 125.033 387.101 125.91C386.277 126.77 385.421 127.612 384.736 128.49C384.384 128.92 383.993 129.355 383.667 129.781C383.356 130.215 383.043 130.642 382.741 131.062C382.412 131.48 382.19 131.9 381.938 132.31C381.711 132.715 381.406 133.128 381.238 133.508C381.047 133.901 380.877 134.275 380.703 134.641C380.544 135.008 380.455 135.344 380.327 135.685C380.185 136.025 380.138 136.329 380.064 136.631C379.99 136.933 379.911 137.221 379.9 137.471C379.818 137.994 379.812 138.423 379.824 138.782C379.855 139.121 379.867 139.401 379.922 139.57C379.955 139.751 379.996 139.833 379.996 139.833C379.996 139.833 379.724 139.576 379.551 138.925Z" fill="white"/>
</g>
<defs>
<filter id="filter0_d_218_220" x="0.542969" y="24.4402" width="442.061" height="133.744" filterUnits="userSpaceOnUse" color-interpolation-filters="sRGB">
<feFlood flood-opacity="0" result="BackgroundImageFix"/>
<feColorMatrix in="SourceAlpha" type="matrix" values="0 0 0 0 0 0 0 0 0 0 0 0 0 0 0 0 0 0 127 0" result="hardAlpha"/>
<feOffset dy="4"/>
<feGaussianBlur stdDeviation="2"/>
<feComposite in2="hardAlpha" operator="out"/>
<feColorMatrix type="matrix" values="0 0 0 0 0 0 0 0 0 0 0 0 0 0 0 0 0 0 0.25 0"/>
<feBlend mode="normal" in2="BackgroundImageFix" result="effect1_dropShadow_218_220"/>
<feBlend mode="normal" in="SourceGraphic" in2="effect1_dropShadow_218_220" result="shape"/>
</filter>
</defs>
</svg>
